<svg xmlns="http://www.w3.org/2000/svg" xml:space="preserve" width="100" height="100" fill="#fff" stroke="#fff" viewBox="0 0 185.043 185.043"><path d="M153.243.006h-33.528L98.011 31.012l16.754 23.951zM98.017 68.524v-5.717h11.262L65.321 0H31.8l43.958 62.807h11.286v5.717c-29.63 2.783-52.906 27.782-52.906 58.118 0 32.199 26.199 58.401 58.398 58.401 32.196 0 58.404-26.202 58.404-58.401-.012-30.348-23.284-55.341-52.923-58.118zM92.531 175.69c-27.048 0-49.045-22-49.045-49.049 0-27.048 21.997-49.045 49.045-49.045 27.051 0 49.045 21.997 49.045 49.045 0 27.049-21.994 49.049-49.045 49.049z"/><path d="M92.531 161.149c1.97 3.258 4.39 4.634 8.065 5.547 3.684.907 6.441.828 9.724-1.127-3.641-5.839-11.853-7.879-17.789-4.42zM103.653 158.915c2.923 2.436 5.645 2.946 9.426 2.605 3.763-.328 6.363-1.303 8.829-4.226-5.347-4.335-13.774-3.604-18.255 1.621zM113.425 153.166c3.562 1.364 6.314.95 9.773-.591 3.452-1.546 5.596-3.318 6.979-6.874-6.467-2.375-14.2 1.071-16.752 7.465zM120.799 144.556c3.812.122 6.284-1.162 9.043-3.738 2.764-2.588 4.207-4.957 4.354-8.769-6.881-.146-13.056 5.633-13.397 12.507zM124.977 134.01c3.641-1.12 5.565-3.142 7.331-6.479 1.778-3.35 2.368-6.053 1.254-9.706-6.539 2.107-10.51 9.578-8.585 16.185zM125.488 122.678c3.075-2.247 4.238-4.78 4.823-8.519.591-3.732.256-6.497-1.961-9.584-5.517 4.128-6.832 12.494-2.862 18.103zM74.747 165.569c3.273 1.955 6.038 2.041 9.715 1.127 3.672-.913 6.086-2.289 8.068-5.547-5.943-3.459-14.16-1.419-17.783 4.42zM92.531 163.999c-3.267 1.017-5.289 4.707-4.372 8.014 1.83-.543 2.783-1.535 3.699-3.186.35-.645.523-1.229.673-1.826.155.597.332 1.182.679 1.826.91 1.656 1.873 2.643 3.693 3.186.929-3.307-1.106-7.003-4.372-8.014zM63.157 157.295c2.457 2.91 5.063 3.897 8.829 4.226 3.772.341 6.491-.17 9.42-2.605-4.482-5.226-12.918-5.957-18.249-1.621zM71.629 153.166c-2.542-6.388-10.281-9.84-16.748-7.465 1.373 3.556 3.522 5.328 6.984 6.874 3.468 1.535 6.212 1.944 9.764.591zM64.268 144.556c-.344-6.874-6.519-12.652-13.402-12.507.137 3.812 1.586 6.187 4.36 8.769 2.755 2.576 5.218 3.86 9.042 3.738zM60.082 134.01c1.921-6.606-2.031-14.078-8.592-16.185-1.096 3.653-.505 6.356 1.267 9.706 1.762 3.337 3.683 5.359 7.325 6.479zM59.57 122.678c3.979-5.62 2.664-13.975-2.85-18.103-2.226 3.087-2.554 5.852-1.964 9.596.582 3.739 1.742 6.26 4.814 8.507zM85.199 151.851c-.968.408-2.408.963-2.962 1.048l-1.129.634c.07.554 1.154.974 1.945.669.685.433 2.052.159 3.044-.122.99-.279 1.827-.279 2.448-.188.624.092 1.991.603 3.044-.226 1.06-.834.387-2.009-.07-2.935-.466-.925.201-3.58.301-3.763.091-.189 1.132 1.267 1.364 1.979.238.713.81 1.498 1.328 1.846l1.011 1.181-.947 1.157c-.262.14-.143.901.48.791l.621-.17.394-.201.404-.164.481-.342.423-.718c.183-.019.631-.572.368-1.31-.249-.736-1.333-3.501-.989-4.226.348-.719.911-2.125-.301-2.241-1.203-.115-1.702.42-2.049.141l-1.391-4.178c-.119-.164.459-1.783-.344-3.239-.816-1.449-1.87-4.013-1.775-4.433.091-.414 1.078-3.483 1.681-4.566.605-1.084.807-5.128.676-5.749-.137-.627.067-.779.53-1.199.454-.42 2.1-1.809 2.28-3.86.207.664.95.761 1.599.871.648.121.959-.342.959-.408 0-.08.394-.372.417-.95.119-.768.25-1.504.394-1.979l-.125-1.254-.886-.621c-.198-.183-.984-1.638-1.121-2.302-.131-.676-.694-1.303-.694-1.303s1.416-1.449 1.754-2.491c.417.713.506.536.53.768l.344 1.15c.119.214-.405 1.596.417 2.655s1.863 3.105 2.083 3.556l.304.573s-1.139-.062-1.321 1.692c-.256-.164-1.178-.213-.697.621l.138.621.167.536.362.304s-.292.646.743.573c1.035-.067 1.747-.159 1.771-.597l.609-2.619-.183-2.027c-.195-.554-.354-2.588-.305-3.922.049-1.333-.597-2.009-.572-2.861.024-.858-.286-1.662-.585-2.059-.292-.383-.48-1.687-.688-2.308-.214-.621-.487-1.041-.487-1.041s.347-1.76-.213-2.71c-.549-.938-1.185-1.303-1.185-1.303s-.055-2.861-2.476-3.604c-1.108-.463-1.826-.244-1.826-.244s-.728-.962-1.821-1.376c-1.09-.414-1.958-1.199-2-1.431l-.095-1.431c-.066-.086.548-.116.548-.854 0-.742-.155-1.704-.834-1.527-.231-1.015-1.309-3.758-3.945-3.118-2.628.648-2.813 2.862-2.469 3.812.353.944.536 1.455.536 1.455s-.582.141-.094.78c.481.651.554.804.6 1.114l.323.225.743 1.255.487.39c0-.043.566 1.668.709 2.424.137.761-.049 1.224-.049 1.224s-1.778 1.315-2.344 3.057c-.587 1.724-1.029 2.076-.493 3.245.542 1.182 1.666 1.164 1.726 1.182l-.119.95-.231 1.425-.125.487c-.067.085-.679.255-.11 2.265-.183.828-.655 2.351-.094 3.325 0 0-.298 1.937-.606 3.068-.286 1.133-.25 1.498-.25 1.498s-1.796 1.528-2.338 3.252c-.518 1.735-.648 3.19-.734 3.465-.088.273-.654 1.364-.898 2.563-.231 1.199.042 2.033.119 2.405.061.371-.387.779-.207 2.101.174 1.309.368 1.863.73 2.076.381.207.965 1.406 1.553 1.748.579.347.579.438.758.742.189.305 2.07 3.143 3.3 4.178.067 1.229.305 4.299.554 5.846.256 1.547-.25 3.044-.703 3.58-.445.528-1.254 1.247-2.22 1.667zm9.527-39.068s.499.414 1.172.853c.667.444 1.358 1.498 1.358 1.498l-.53.256c-.298-.317-.627-.158-.94.438-.125-.968-.972-2.581-1.054-2.703v-.341h-.006z"/></svg>